<?xml version="1.0" encoding="utf-8"?>
<!-- Generator: Adobe Illustrator 21.0.2, SVG Export Plug-In . SVG Version: 6.00 Build 0)  -->
<svg version="1.1" xmlns="http://www.w3.org/2000/svg" xmlns:xlink="http://www.w3.org/1999/xlink" x="0px" y="0px"
	 viewBox="0 0 100 100" style="enable-background:new 0 0 100 100;" xml:space="preserve">
<style type="text/css">
	.st0{fill:#7D8A8E;}
	.st1{fill:#97A7AF;}
	.st2{fill:#EDCF54;}
	.st3{fill:#BDCBD1;}
	.st4{fill:#85C3D6;}
	.st5{fill:#44768C;}
	.st6{fill:#A08824;}
	.st7{fill:#C9AC32;}
	.st8{fill:#95BFCE;}
	.st9{fill:#FF6C6C;}
	.st10{fill:#2FBA7E;}
</style>
<g id="Background">
</g>
<g id="Objects">
	<g>
		<path class="st8" d="M82.7,65C70.4,65,59,58.4,52.9,47.8c-6.1-10.6-6.1-23.8,0-34.5c0.8-1.3,0.7-3-0.1-4.3C52,7.7,50.6,6.9,49,6.9
			c-7.5,0-14.9,2-21.5,5.7C7,24.5-0.1,50.9,11.8,71.5c7.7,13.3,22,21.6,37.4,21.6c0,0,0,0,0,0c7.5,0,15-2,21.5-5.8
			c6.5-3.8,12-9.3,15.8-15.8c0.8-1.3,0.8-3,0-4.3C85.7,65.9,84.3,65,82.7,65z"/>
		<path class="st2" d="M92.8,42.5l-2.5-0.4C89,42,87.5,40.9,87,39.7l-1.1-2.3c-0.6-1.1-1.5-1.1-2,0l-1.1,2.3
			c-0.6,1.1-2.1,2.2-3.3,2.4l-2.5,0.4c-1.3,0.2-1.5,1.1-0.6,2l1.8,1.8c0.9,0.9,1.5,2.6,1.3,3.9l-0.4,2.5c-0.2,1.3,0.5,1.8,1.7,1.2
			l2.3-1.2c1.1-0.6,3-0.6,4.1,0l2.3,1.2c1.1,0.6,1.9,0.1,1.7-1.2l-0.4-2.5c-0.2-1.3,0.4-3,1.3-3.9l1.8-1.8
			C94.4,43.6,94.1,42.7,92.8,42.5z"/>
	</g>
</g>
</svg>
