<?xml version="1.0" encoding="utf-8"?>
<!-- Generator: Adobe Illustrator 21.0.2, SVG Export Plug-In . SVG Version: 6.00 Build 0)  -->
<svg version="1.1" xmlns="http://www.w3.org/2000/svg" xmlns:xlink="http://www.w3.org/1999/xlink" x="0px" y="0px"
	 viewBox="0 0 100 100" style="enable-background:new 0 0 100 100;" xml:space="preserve">
<style type="text/css">
	.st0{fill:#7D8A8E;}
	.st1{fill:#97A7AF;}
	.st2{fill:#EDCF54;}
	.st3{fill:#BDCBD1;}
	.st4{fill:#85C3D6;}
	.st5{fill:#44768C;}
	.st6{fill:#A08824;}
	.st7{fill:#C9AC32;}
	.st8{fill:#95BFCE;}
	.st9{fill:#FF6C6C;}
	.st10{fill:#2FBA7E;}
</style>
<g id="Background">
</g>
<g id="Objects">
	<path class="st2" d="M92,45.8H79.4c-0.3-2.4-0.9-4.7-1.8-6.9l10.9-6.3c2-1.2,2.7-3.7,1.5-5.7c-1.2-2-3.7-2.7-5.7-1.5l-10.9,6.3
		c-1.5-1.9-3.1-3.5-5-5l6.3-10.9c1.2-2,0.5-4.6-1.5-5.7c-2-1.2-4.6-0.5-5.7,1.5L61,22.5c-2.2-0.9-4.5-1.5-6.8-1.8V8
		c0-2.3-1.9-4.2-4.2-4.2c-2.3,0-4.2,1.9-4.2,4.2v12.6c-2.4,0.3-4.7,0.9-6.9,1.8l-6.3-10.9c-1.2-2-3.7-2.7-5.7-1.5
		c-2,1.2-2.7,3.7-1.5,5.7l6.3,10.9c-1.9,1.5-3.5,3.1-5,5l-11-6.3c-2-1.2-4.6-0.5-5.7,1.5c-1.2,2-0.5,4.6,1.5,5.7L22.5,39
		c-0.9,2.2-1.5,4.5-1.8,6.8H8c-2.3,0-4.2,1.9-4.2,4.2c0,2.3,1.9,4.2,4.2,4.2h12.7c0.3,2.4,0.9,4.7,1.8,6.8l-10.9,6.3
		c-2,1.2-2.7,3.7-1.5,5.7c0.8,1.3,2.2,2.1,3.6,2.1c0.7,0,1.4-0.2,2.1-0.6l11-6.3c1.5,1.9,3.1,3.5,5,5l-6.3,11
		c-1.2,2-0.5,4.6,1.5,5.7c0.7,0.4,1.4,0.6,2.1,0.6c1.5,0,2.9-0.7,3.6-2.1L39,77.5c2.2,0.9,4.5,1.5,6.9,1.8V92c0,2.3,1.9,4.2,4.2,4.2
		c2.3,0,4.2-1.9,4.2-4.2V79.4c2.4-0.3,4.7-0.9,6.8-1.8l6.3,10.9c0.8,1.3,2.2,2.1,3.6,2.1c0.7,0,1.4-0.2,2.1-0.6
		c2-1.2,2.7-3.7,1.5-5.7l-6.3-10.9c1.9-1.5,3.5-3.1,5-5l11,6.3c0.7,0.4,1.4,0.6,2.1,0.6c1.5,0,2.9-0.8,3.6-2.1
		c1.2-2,0.5-4.6-1.5-5.7l-10.9-6.3c0.9-2.2,1.5-4.5,1.8-6.8H92c2.3,0,4.2-1.9,4.2-4.2C96.2,47.7,94.3,45.8,92,45.8z"/>
</g>
</svg>
