<?xml version="1.0" encoding="utf-8"?>
<!-- Generator: Adobe Illustrator 21.0.2, SVG Export Plug-In . SVG Version: 6.00 Build 0)  -->
<svg version="1.1" xmlns="http://www.w3.org/2000/svg" xmlns:xlink="http://www.w3.org/1999/xlink" x="0px" y="0px"
	 viewBox="0 0 100 100" style="enable-background:new 0 0 100 100;" xml:space="preserve">
<style type="text/css">
	.st0{fill:#7D8A8E;}
	.st1{fill:#97A7AF;}
	.st2{fill:#EDCF54;}
	.st3{fill:#BDCBD1;}
	.st4{fill:#85C3D6;}
	.st5{fill:#44768C;}
	.st6{fill:#A08824;}
	.st7{fill:#C9AC32;}
	.st8{fill:#95BFCE;}
	.st9{fill:#FF6C6C;}
	.st10{fill:#2FBA7E;}
</style>
<g id="Background">
</g>
<g id="Objects">
	<g>
		<path class="st0" d="M94.9,34.3c-0.4-0.3-0.9-0.5-1.4-0.7c0.4-0.5,0.8-1,1.1-1.6c3.4-5.9,1.4-13.5-4.5-16.9
			c-5.7-3.3-13.1-1.5-16.6,4.1c-4-2.1-8.7-1.5-12.2,1c6.6,4.9,11,12.7,11.3,21.4c8.2,0.7,15.2,5.4,19.2,12.1c2.8-0.6,5.4-2.3,6.9-5
			C101.7,43.7,100,37.2,94.9,34.3z"/>
		<path class="st1" d="M70.5,46.3c-1,0-1.9,0.1-2.9,0.2c0.2-1.2,0.3-2.4,0.3-3.7c0-13-10.5-23.5-23.5-23.5
			c-12.6,0-22.9,10-23.5,22.5C9.2,42.5-0.2,52.2-0.2,64.1c0,12.3,10,22.3,22.3,22.3h48.4c11.1,0,20.1-9,20.1-20.1
			C90.6,55.3,81.6,46.3,70.5,46.3z"/>
	</g>
</g>
</svg>
