<?xml version="1.0" encoding="utf-8"?>
<!-- Generator: Adobe Illustrator 21.0.2, SVG Export Plug-In . SVG Version: 6.00 Build 0)  -->
<svg version="1.1" xmlns="http://www.w3.org/2000/svg" xmlns:xlink="http://www.w3.org/1999/xlink" x="0px" y="0px"
	 viewBox="0 0 100 100" style="enable-background:new 0 0 100 100;" xml:space="preserve">
<style type="text/css">
	.st0{fill:#7D8A8E;}
	.st1{fill:#97A7AF;}
	.st2{fill:#EDCF54;}
	.st3{fill:#BDCBD1;}
	.st4{fill:#85C3D6;}
	.st5{fill:#44768C;}
	.st6{fill:#A08824;}
	.st7{fill:#C9AC32;}
	.st8{fill:#95BFCE;}
	.st9{fill:#FF6C6C;}
	.st10{fill:#2FBA7E;}
</style>
<g id="Background">
</g>
<g id="Objects">
	<g>
		<path class="st3" d="M76.8,35c-1,0-2.1,0.1-3.1,0.2c0.2-1.3,0.3-2.6,0.3-3.9c0-13.7-11.1-24.9-24.9-24.9
			C35.8,6.4,24.9,17,24.4,30.2C11.9,30.9,2,41.1,2,53.8c0,5.9,2.2,11.3,5.8,15.5h11.8c-1.3-1.4-2.1-3.3-2.1-5.4
			c0-4.5,3.6-8.1,8.1-8.1h51.2c4.5,0,8.1,3.6,8.1,8.1c0,4.5-3.6,8.1-8.1,8.1H63.9c1.3,1.4,2.1,3.3,2.1,5.4h10.8
			c11.7,0,21.2-9.5,21.2-21.2C98,44.4,88.5,35,76.8,35z"/>
		<path class="st5" d="M76.8,66.6c1.5,0,2.7-1.2,2.7-2.7c0-1.5-1.2-2.7-2.7-2.7H25.6c-1.5,0-2.7,1.2-2.7,2.7c0,1.5,1.2,2.7,2.7,2.7
			H76.8z"/>
		<path class="st5" d="M60.6,77.4c0-1.5-1.2-2.7-2.7-2.7H6.7c-1.5,0-2.7,1.2-2.7,2.7c0,1.5,1.2,2.7,2.7,2.7h51.2
			C59.4,80.1,60.6,78.9,60.6,77.4z"/>
		<path class="st5" d="M66,88.2H14.8c-1.5,0-2.7,1.2-2.7,2.7c0,1.5,1.2,2.7,2.7,2.7H66c1.5,0,2.7-1.2,2.7-2.7
			C68.7,89.4,67.5,88.2,66,88.2z"/>
	</g>
</g>
</svg>
