<?xml version="1.0" encoding="utf-8"?>
<!-- Generator: Adobe Illustrator 21.0.2, SVG Export Plug-In . SVG Version: 6.00 Build 0)  -->
<svg version="1.1" xmlns="http://www.w3.org/2000/svg" xmlns:xlink="http://www.w3.org/1999/xlink" x="0px" y="0px"
	 viewBox="0 0 100 100" style="enable-background:new 0 0 100 100;" xml:space="preserve">
<style type="text/css">
	.st0{fill:#7D8A8E;}
	.st1{fill:#97A7AF;}
	.st2{fill:#EDCF54;}
	.st3{fill:#BDCBD1;}
	.st4{fill:#85C3D6;}
	.st5{fill:#44768C;}
	.st6{fill:#A08824;}
	.st7{fill:#C9AC32;}
	.st8{fill:#95BFCE;}
	.st9{fill:#FF6C6C;}
	.st10{fill:#2FBA7E;}
</style>
<g id="Background">
</g>
<g id="Objects">
	<g>
		<path class="st2" d="M99.1,27L98,26.8c-0.6-0.1-1.3-0.6-1.5-1.1l-0.5-1c-0.3-0.5-0.7-0.5-0.9,0l-0.5,1c-0.3,0.5-0.9,1-1.5,1.1
			L91.8,27c-0.6,0.1-0.7,0.5-0.3,0.9l0.8,0.8c0.4,0.4,0.7,1.2,0.6,1.8l-0.2,1.1c-0.1,0.6,0.2,0.8,0.8,0.6l1-0.5
			c0.5-0.3,1.4-0.3,1.9,0l1,0.5c0.5,0.3,0.9,0,0.8-0.6L98,30.5c-0.1-0.6,0.2-1.4,0.6-1.8l0.8-0.8C99.8,27.5,99.7,27.1,99.1,27z"/>
		<path class="st8" d="M94.5,37.3c-5.6,0-10.8-3-13.6-7.9c-2.8-4.8-2.8-10.9,0-15.7c0.4-0.6,0.3-1.4,0-2c-0.4-0.6-1-1-1.7-1
			c-3.4,0-6.8,0.9-9.8,2.6c-2.9,1.7-5.2,4-6.9,6.6c7.5,5,12.6,13.3,13.2,22.8c4.7,0.5,9,2.3,12.7,5c0.2-0.1,0.5-0.2,0.7-0.3
			c3-1.7,5.5-4.2,7.2-7.2c0.3-0.6,0.3-1.4,0-2C95.9,37.6,95.2,37.3,94.5,37.3z"/>
		<path class="st3" d="M72.8,48.2c-1,0-2,0.1-3,0.2c0.2-1.2,0.3-2.5,0.3-3.8c0-13.3-10.8-24.1-24.1-24.1c-12.9,0-23.5,10.2-24,23.1
			C9.9,44.2,0.4,54.2,0.4,66.4c0,12.6,10.2,22.9,22.9,22.9h49.6c11.3,0,20.5-9.2,20.5-20.5C93.3,57.4,84.1,48.2,72.8,48.2z"/>
	</g>
</g>
</svg>
