<?xml version="1.0" encoding="utf-8"?>
<!-- Generator: Adobe Illustrator 21.0.2, SVG Export Plug-In . SVG Version: 6.00 Build 0)  -->
<svg version="1.1" xmlns="http://www.w3.org/2000/svg" xmlns:xlink="http://www.w3.org/1999/xlink" x="0px" y="0px"
	 viewBox="0 0 100 100" style="enable-background:new 0 0 100 100;" xml:space="preserve">
<style type="text/css">
	.st0{fill:#7D8A8E;}
	.st1{fill:#97A7AF;}
	.st2{fill:#EDCF54;}
	.st3{fill:#BDCBD1;}
	.st4{fill:#85C3D6;}
	.st5{fill:#44768C;}
	.st6{fill:#A08824;}
	.st7{fill:#C9AC32;}
	.st8{fill:#95BFCE;}
	.st9{fill:#FF6C6C;}
	.st10{fill:#2FBA7E;}
</style>
<g id="Background">
</g>
<g id="Objects">
	<g>
		<path class="st2" d="M97.8,35.3h-7.4c-0.2-1.4-0.6-2.7-1.1-4l6.4-3.7c1.2-0.7,1.6-2.2,0.9-3.3c-0.7-1.2-2.2-1.6-3.3-0.9l-6.4,3.7
			C86,26,85,25,83.9,24.2l3.7-6.4c0.7-1.2,0.3-2.7-0.9-3.3c-1.2-0.7-2.7-0.3-3.3,0.9l-3.7,6.4c-1.3-0.5-2.6-0.9-4-1.1v-7.4
			c0-1.4-1.1-2.4-2.4-2.4c-1.3,0-2.4,1.1-2.4,2.4v7.4c-1.4,0.2-2.7,0.6-4,1.1l-3.7-6.4c-0.7-1.2-2.2-1.6-3.3-0.9
			c-1.2,0.7-1.6,2.2-0.9,3.3l3.7,6.4c-0.4,0.3-0.7,0.6-1.1,1c5.8,4.9,9.5,12,9.9,20c5.1,0.4,9.7,2.4,13.4,5.5
			c0.8-0.7,1.5-1.4,2.1-2.2l6.4,3.7c0.4,0.2,0.8,0.3,1.2,0.3c0.8,0,1.7-0.4,2.1-1.2c0.7-1.2,0.3-2.7-0.9-3.3l-6.4-3.7
			c0.5-1.3,0.9-2.6,1.1-4h7.4c1.4,0,2.4-1.1,2.4-2.4C100.2,36.4,99.1,35.3,97.8,35.3z"/>
		<path class="st3" d="M69.3,49.8c-1,0-1.9,0.1-2.8,0.2c0.2-1.2,0.3-2.4,0.3-3.6c0-12.8-10.3-23.1-23.1-23.1
			c-12.4,0-22.5,9.8-23,22.1C9,46-0.2,55.5-0.2,67.2c0,12.1,9.8,21.9,21.9,21.9h47.5c10.9,0,19.7-8.8,19.7-19.7
			C88.9,58.6,80.1,49.8,69.3,49.8z"/>
	</g>
</g>
</svg>
