<?xml version="1.0" encoding="utf-8"?>
<!-- Generator: Adobe Illustrator 21.0.2, SVG Export Plug-In . SVG Version: 6.00 Build 0)  -->
<svg version="1.1" xmlns="http://www.w3.org/2000/svg" xmlns:xlink="http://www.w3.org/1999/xlink" x="0px" y="0px"
	 viewBox="0 0 100 100" style="enable-background:new 0 0 100 100;" xml:space="preserve">
<style type="text/css">
	.st0{fill:#7D8A8E;}
	.st1{fill:#97A7AF;}
	.st2{fill:#EDCF54;}
	.st3{fill:#BDCBD1;}
	.st4{fill:#85C3D6;}
	.st5{fill:#44768C;}
	.st6{fill:#A08824;}
	.st7{fill:#C9AC32;}
	.st8{fill:#95BFCE;}
	.st9{fill:#FF6C6C;}
	.st10{fill:#2FBA7E;}
</style>
<g id="Background">
</g>
<g id="Objects">
	<g>
		<path class="st0" d="M76.8,31.2c-1,0-2.1,0.1-3.1,0.2c0.2-1.3,0.3-2.6,0.3-3.9C74.1,13.8,63,2.6,49.2,2.6
			c-13.4,0-24.3,10.6-24.8,23.9C11.8,27.1,1.9,37.4,1.9,50c0,10.7,7.2,19.8,17,22.7l5.2-9c1.1-1.9,2.8-3.4,4.9-4.1
			c-0.4-2.2,0-4.4,1.1-6.3l2.7-4.7c1.7-2.9,4.8-4.7,8.2-4.7c1.7,0,3.3,0.4,4.7,1.3c2.2,1.3,3.8,3.3,4.4,5.8c0.3,1,0.3,2.1,0.3,3.1
			l3.1-5.4c1.7-2.9,4.8-4.7,8.2-4.7c1.7,0,3.3,0.4,4.7,1.3c3.3,1.9,5,5.5,4.7,9.1c0.1-0.3,0.2-0.7,0.4-1l2.7-4.7
			c1.7-2.9,4.8-4.7,8.2-4.7c1.7,0,3.3,0.4,4.7,1.3c2.2,1.3,3.8,3.3,4.4,5.8c0.7,2.4,0.3,5-0.9,7.2L88,62.8c-1.5,2.6-4.2,4.4-7.2,4.7
			c0.8,1.8,0.9,3.8,0.6,5.7c9.6-2.1,16.7-10.6,16.7-20.8C98.1,40.7,88.6,31.2,76.8,31.2z"/>
		<path class="st4" d="M36.6,61c0.5,0.3,1.1,0.5,1.7,0.5c1.2,0,2.3-0.6,2.9-1.7l2.7-4.7c0.9-1.6,0.4-3.7-1.2-4.6
			c-1.6-0.9-3.7-0.4-4.6,1.2l-2.7,4.7C34.4,58,35,60.1,36.6,61z"/>
		<path class="st5" d="M34,65.5c-1.6-0.9-3.7-0.4-4.6,1.2l-6,10.4c-0.9,1.6-0.4,3.7,1.2,4.6c0.5,0.3,1.1,0.5,1.7,0.5
			c1.2,0,2.3-0.6,2.9-1.7l6-10.4C36.1,68.6,35.6,66.5,34,65.5z"/>
		<path class="st4" d="M21.9,86.4c-1.6-0.9-3.7-0.4-4.6,1.2l-2.7,4.7c-0.9,1.6-0.4,3.7,1.2,4.6c0.5,0.3,1.1,0.5,1.7,0.5
			c1.2,0,2.3-0.6,2.9-1.7l2.7-4.7C24.1,89.4,23.6,87.3,21.9,86.4z"/>
		<path class="st5" d="M63.4,50.5c-1.6-0.9-3.7-0.4-4.6,1.2L50,66.9c-0.9,1.6-0.4,3.7,1.2,4.6c0.5,0.3,1.1,0.5,1.7,0.5
			c1.2,0,2.3-0.6,2.9-1.7l8.8-15.2C65.6,53.5,65,51.4,63.4,50.5z"/>
		<path class="st5" d="M48.8,75.8c-1.6-0.9-3.7-0.4-4.6,1.2l-8.8,15.2c-0.9,1.6-0.4,3.7,1.2,4.6c0.5,0.3,1.1,0.5,1.7,0.5
			c1.2,0,2.3-0.6,2.9-1.7L50,80.4C50.9,78.8,50.4,76.8,48.8,75.8z"/>
		<path class="st4" d="M82.7,59.8l2.7-4.7c0.9-1.6,0.4-3.7-1.2-4.6c-1.6-0.9-3.7-0.4-4.6,1.2l-2.7,4.7c-0.9,1.6-0.4,3.7,1.2,4.6
			c0.5,0.3,1.1,0.5,1.7,0.5C80.9,61.5,82.1,60.9,82.7,59.8z"/>
		<path class="st5" d="M73.8,68.4c-1.6-0.9-3.7-0.4-4.6,1.2l-2.8,4.8C65.5,76,66,78.1,67.7,79c0.5,0.3,1.1,0.5,1.7,0.5
			c1.2,0,2.3-0.6,2.9-1.7L75,73C76,71.4,75.4,69.3,73.8,68.4z"/>
		<path class="st4" d="M63.4,86.4c-1.6-0.9-3.7-0.4-4.6,1.2l-2.7,4.7c-0.9,1.6-0.4,3.7,1.2,4.6c0.5,0.3,1.1,0.5,1.7,0.5
			c1.2,0,2.3-0.6,2.9-1.7l2.7-4.7C65.6,89.4,65,87.3,63.4,86.4z"/>
	</g>
</g>
</svg>
