<?xml version="1.0" encoding="utf-8"?>
<!-- Generator: Adobe Illustrator 21.0.2, SVG Export Plug-In . SVG Version: 6.00 Build 0)  -->
<svg version="1.1" xmlns="http://www.w3.org/2000/svg" xmlns:xlink="http://www.w3.org/1999/xlink" x="0px" y="0px"
	 viewBox="0 0 100 100" style="enable-background:new 0 0 100 100;" xml:space="preserve">
<style type="text/css">
	.st0{fill:#7D8A8E;}
	.st1{fill:#97A7AF;}
	.st2{fill:#EDCF54;}
	.st3{fill:#BDCBD1;}
	.st4{fill:#85C3D6;}
	.st5{fill:#44768C;}
	.st6{fill:#A08824;}
	.st7{fill:#C9AC32;}
	.st8{fill:#95BFCE;}
	.st9{fill:#FF6C6C;}
	.st10{fill:#2FBA7E;}
</style>
<g id="Background">
</g>
<g id="Objects">
	<g>
		<path class="st4" d="M24.1,78c-1.6-0.9-3.7-0.4-4.6,1.2l-7.4,12.8c-0.9,1.6-0.4,3.7,1.2,4.6c0.5,0.3,1.1,0.5,1.7,0.5
			c1.2,0,2.3-0.6,2.9-1.7l7.4-12.8C26.3,81,25.7,79,24.1,78z"/>
		<path class="st4" d="M44.7,78c-1.6-0.9-3.7-0.4-4.6,1.2l-7.4,12.8c-0.9,1.6-0.4,3.7,1.2,4.6c0.5,0.3,1.1,0.5,1.7,0.5
			c1.2,0,2.3-0.6,2.9-1.7L46,82.6C46.9,81,46.3,79,44.7,78z"/>
		<path class="st1" d="M76.7,31.3c-1,0-2.1,0.1-3.1,0.2c0.2-1.3,0.3-2.6,0.3-3.9C74,14,62.9,2.8,49.2,2.8
			C35.9,2.8,25,13.4,24.5,26.6C12,27.2,2.1,37.5,2.1,50c0,13,10.5,23.5,23.5,23.5h51c11.7,0,21.1-9.5,21.1-21.1
			C97.9,40.8,88.4,31.3,76.7,31.3z M41.3,55.1l-7.4,12.8c-0.6,1.1-1.8,1.7-2.9,1.7c-0.6,0-1.2-0.1-1.7-0.5c-1.6-0.9-2.2-3-1.2-4.6
			l7.4-12.8c0.9-1.6,3-2.2,4.6-1.2C41.6,51.4,42.2,53.4,41.3,55.1z M61.9,55.1l-7.4,12.8c-0.6,1.1-1.8,1.7-2.9,1.7
			c-0.6,0-1.2-0.1-1.7-0.5c-1.6-0.9-2.2-3-1.2-4.6l7.4-12.8c0.9-1.6,3-2.2,4.6-1.2C62.3,51.4,62.8,53.4,61.9,55.1z M82.5,55.1
			l-7.4,12.8c-0.6,1.1-1.8,1.7-2.9,1.7c-0.6,0-1.2-0.1-1.7-0.5c-1.6-0.9-2.2-3-1.2-4.6l7.4-12.8c0.9-1.6,3-2.2,4.6-1.2
			C82.9,51.4,83.5,53.4,82.5,55.1z"/>
		<path class="st4" d="M65.4,78c-1.6-0.9-3.7-0.4-4.6,1.2l-7.4,12.8c-0.9,1.6-0.4,3.7,1.2,4.6c0.5,0.3,1.1,0.5,1.7,0.5
			c1.2,0,2.3-0.6,2.9-1.7l7.4-12.8C67.5,81,67,79,65.4,78z"/>
	</g>
</g>
</svg>
