<?xml version="1.0" encoding="utf-8"?>
<!-- Generator: Adobe Illustrator 21.0.2, SVG Export Plug-In . SVG Version: 6.00 Build 0)  -->
<svg version="1.1" xmlns="http://www.w3.org/2000/svg" xmlns:xlink="http://www.w3.org/1999/xlink" x="0px" y="0px"
	 viewBox="0 0 100 100" style="enable-background:new 0 0 100 100;" xml:space="preserve">
<style type="text/css">
	.st0{fill:#7D8A8E;}
	.st1{fill:#97A7AF;}
	.st2{fill:#EDCF54;}
	.st3{fill:#BDCBD1;}
	.st4{fill:#85C3D6;}
	.st5{fill:#44768C;}
	.st6{fill:#A08824;}
	.st7{fill:#C9AC32;}
	.st8{fill:#95BFCE;}
	.st9{fill:#FF6C6C;}
	.st10{fill:#2FBA7E;}
</style>
<g id="Background">
</g>
<g id="Objects">
	<g>
		<path class="st0" d="M38.1,38.1c-6.6,6.6-6.6,17.3,0,23.9c3.2,3.2,7.4,4.9,11.9,4.9c4.5,0,8.8-1.8,11.9-4.9
			c6.6-6.6,6.6-17.3,0-23.9c-3.2-3.2-7.4-4.9-11.9-4.9C45.5,33.1,41.2,34.9,38.1,38.1z M57.5,57.5c-4,4-11,4-15,0
			c-4.1-4.1-4.1-10.9,0-15c2-2,4.7-3.1,7.5-3.1c2.8,0,5.5,1.1,7.5,3.1C61.7,46.6,61.7,53.4,57.5,57.5z"/>
		<path class="st0" d="M91.2,47.8L71.7,28.3c-5.8-5.8-13.5-9-21.7-9c-8.2,0-15.9,3.2-21.7,9c-7,7-9.9,16.7-8.6,25.9l-6.4-6.4
			c-4.6-4.6-7.1-10.7-7.1-17.3c0-6.5,2.5-12.6,7.1-17.3c1.2-1.2,1.2-3.2,0-4.4c-1.2-1.2-3.2-1.2-4.4,0c-5.8,5.8-9,13.5-9,21.7
			c0,8.2,3.2,15.9,9,21.7l19.5,19.5c5.8,5.8,13.5,9,21.7,9c8.2,0,15.9-3.2,21.7-9c7-7,9.9-16.7,8.6-25.9l6.4,6.4
			c9.5,9.5,9.5,25,0,34.5c-1.2,1.2-1.2,3.2,0,4.4c0.6,0.6,1.4,0.9,2.2,0.9c0.8,0,1.6-0.3,2.2-0.9C103.1,79.2,103.1,59.7,91.2,47.8z
			 M67.3,67.3c-4.6,4.6-10.7,7.1-17.3,7.1c-6.5,0-12.6-2.5-17.3-7.1c-9.5-9.5-9.5-25,0-34.5c4.6-4.6,10.7-7.1,17.3-7.1
			c6.5,0,12.6,2.5,17.3,7.1C76.8,42.3,76.8,57.7,67.3,67.3z"/>
	</g>
</g>
</svg>
